<?xml version="1.0" encoding="UTF-8" standalone="no"?>
<svg
   xmlns:dc="http://purl.org/dc/elements/1.1/"
   xmlns:cc="http://creativecommons.org/ns#"
   xmlns:rdf="http://www.w3.org/1999/02/22-rdf-syntax-ns#"
   xmlns:svg="http://www.w3.org/2000/svg"
   xmlns="http://www.w3.org/2000/svg"
   xmlns:sodipodi="http://sodipodi.sourceforge.net/DTD/sodipodi-0.dtd"
   xmlns:inkscape="http://www.inkscape.org/namespaces/inkscape"
   width="24"
   height="24"
   viewBox="0 0 24 24"
   fill="none"
   stroke="currentColor"
   stroke-width="2"
   stroke-linecap="round"
   stroke-linejoin="round"
   class="feather feather-github"
   version="1.1"
   id="svg4"
   sodipodi:docname="github.svg"
   inkscape:version="0.92.5 (2060ec1f9f, 2020-04-08)">
  <metadata
     id="metadata10">
    <rdf:RDF>
      <cc:Work
         rdf:about="">
        <dc:format>image/svg+xml</dc:format>
        <dc:type
           rdf:resource="http://purl.org/dc/dcmitype/StillImage" />
      </cc:Work>
    </rdf:RDF>
  </metadata>
  <defs
     id="defs8" />
  <sodipodi:namedview
     pagecolor="#ffffff"
     bordercolor="#666666"
     borderopacity="1"
     objecttolerance="10"
     gridtolerance="10"
     guidetolerance="10"
     inkscape:pageopacity="0"
     inkscape:pageshadow="2"
     inkscape:window-width="1101"
     inkscape:window-height="698"
     id="namedview6"
     showgrid="false"
     inkscape:zoom="9.8333333"
     inkscape:cx="12"
     inkscape:cy="3.8644068"
     inkscape:window-x="618"
     inkscape:window-y="73"
     inkscape:window-maximized="0"
     inkscape:current-layer="svg4" />
  <path
     d="M9 19c-5 1.5-5-2.5-7-3m14 6v-3.87a3.37 3.37 0 0 0-.94-2.61c3.14-.35 6.44-1.54 6.44-7A5.44 5.44 0 0 0 20 4.77 5.07 5.07 0 0 0 19.91 1S18.73.65 16 2.48a13.38 13.38 0 0 0-7 0C6.27.65 5.09 1 5.09 1A5.07 5.07 0 0 0 5 4.77a5.44 5.44 0 0 0-1.5 3.78c0 5.42 3.3 6.61 6.44 7A3.37 3.37 0 0 0 9 18.13V22"
     id="path2" />
  <path
     style="fill:#ffffff;stroke-width:0.20338982"
     d="M 8.6835373,22.885572 C 8.5654151,22.836642 8.3709236,22.672216 8.2513339,22.520182 8.0629597,22.280703 8.0338983,22.111137 8.0338983,21.251499 v -0.99226 L 6.8898305,20.221107 C 5.8591395,20.186755 5.6778044,20.150955 5.0600054,19.859863 4.3511229,19.525853 3.5983262,18.851517 2.6014401,17.657543 2.3274312,17.329363 1.9608632,17.001361 1.7868445,16.928651 1.4427548,16.784881 1.1888701,16.533852 1.0804899,16.230242 0.9647275,15.905951 1.207679,15.367702 1.5496352,15.190869 c 0.7098203,-0.367062 1.6104499,0.132222 2.7478668,1.52334 0.405018,0.495357 0.9257311,1.031719 1.1571402,1.191916 0.5382096,0.372584 1.2510532,0.532133 1.9945103,0.446412 l 0.5847458,-0.06742 v -0.42548 c 0,-0.234015 0.064892,-0.675646 0.1442047,-0.981404 C 8.257416,16.572475 8.3058774,16.30588 8.2857959,16.285798 8.2657144,16.265714 7.8461614,16.114507 7.3534556,15.94978 4.3991166,14.962046 2.7854627,12.717191 2.5770948,9.3050847 2.4763202,7.6548607 2.7929059,6.3123431 3.5740914,5.0772073 3.8525719,4.6369007 3.9093092,4.4637875 3.8549268,4.220339 3.7359918,3.6879139 3.7609789,2.2072971 3.898777,1.6219782 3.9718655,1.3115238 4.1198795,0.87677807 4.2276969,0.65587651 4.6717957,-0.25401356 6.0086691,-0.18139313 8.0910752,0.86573944 L 9.2160486,1.4314295 10.124973,1.2703422 c 1.211755,-0.2147574 3.481794,-0.2165751 4.730949,-0.00379 l 0.970284,0.1652828 0.868389,-0.46195704 c 1.977311,-1.05187063 3.51105,-1.24470223 3.997314,-0.50256866 0.443639,0.6770789 0.694725,2.6656364 0.461037,3.651333 -0.07993,0.3371579 -0.06402,0.4513545 0.09295,0.6672179 0.313055,0.4304882 0.792702,1.4403938 0.989717,2.0838614 0.270191,0.8824681 0.242672,2.9299353 -0.05597,4.1641744 -0.501203,2.071408 -1.653447,3.564311 -3.434707,4.450176 -0.513164,0.255208 -1.191407,0.521839 -1.507207,0.592512 -0.508145,0.113718 -0.567192,0.152766 -0.513398,0.339515 0.214144,0.743417 0.266055,1.528965 0.2386,3.610655 -0.03013,2.284215 -0.03543,2.335171 -0.26919,2.58378 -0.304209,0.323542 -0.67965,0.417069 -1.05316,0.262357 -0.543131,-0.224972 -0.589682,-0.462488 -0.590306,-3.011911 -3.05e-4,-1.275235 -0.04596,-2.481996 -0.101428,-2.68169 -0.05548,-0.199696 -0.261152,-0.588532 -0.457061,-0.864082 -0.434147,-0.610638 -0.469167,-1.058944 -0.110718,-1.417392 0.135013,-0.135013 0.352386,-0.2665 0.48305,-0.292192 0.130665,-0.02569 0.640156,-0.120136 1.132202,-0.209875 1.734121,-0.316268 2.850112,-0.952339 3.581954,-2.041572 0.693824,-1.032653 1.029253,-2.4703005 0.936814,-4.0151957 C 20.45185,7.2820338 20.19238,6.5661801 19.57538,5.7464138 18.993564,4.9733934 18.973313,4.9000677 19.164143,4.2574706 19.382067,3.5236422 19.37927,2.1511733 19.159679,2.0669082 18.943876,1.984097 18.025409,2.368493 17.086336,2.9346415 16.230607,3.4505442 16.057998,3.4738449 14.933629,3.2252392 13.292803,2.8624412 11.402037,2.8962965 9.5896,3.3209272 L 8.8571651,3.4925274 8.2585195,3.1230223 C 7.4272152,2.6099127 6.2014039,2.0338983 5.940763,2.0338983 c -0.1850847,0 -0.2264627,0.075529 -0.2775112,0.5065538 -0.058216,0.4915454 0.028955,1.2592484 0.2138418,1.8832767 0.1206856,0.4073363 0.0015,0.7950334 -0.376911,1.2260161 C 5.1030498,6.1020542 4.8446245,6.6096369 4.6225571,7.3735221 4.4817775,7.857787 4.4583517,8.2115979 4.5049283,9.1501225 c 0.06063,1.2217035 0.2316893,1.9599335 0.6418171,2.7698515 0.7086483,1.399438 2.1874114,2.264927 4.4873228,2.626338 0.6183168,0.09716 0.7765888,0.164137 0.9915258,0.419574 0.32727,0.388939 0.324286,0.768525 -0.0095,1.209272 -0.6234881,0.823269 -0.6453219,0.945568 -0.6477531,3.628322 l -0.00223,2.464498 -0.279661,0.303059 c -0.3094564,0.335348 -0.6755163,0.450154 -1.0029034,0.314535 z"
     id="path3715"
     inkscape:connector-curvature="0" />
</svg>
